<svg width="22" height="24" viewBox="0 0 22 24" fill="none" xmlns="http://www.w3.org/2000/svg">
<path d="M0.714294 6H21.2857" stroke="black" stroke-linecap="round" stroke-linejoin="round"/>
<path d="M3.28574 6H18.7143V21.4286C18.7143 21.8832 18.5336 22.3193 18.2122 22.6407C17.8908 22.9622 17.4547 23.1429 17 23.1429H5.00002C4.54536 23.1429 4.10933 22.9622 3.78783 22.6407C3.46635 22.3193 3.28574 21.8832 3.28574 21.4286V6Z" stroke="black" stroke-linecap="round" stroke-linejoin="round"/>
<path d="M6.71429 6V5.14286C6.71429 4.00622 7.16582 2.91612 7.96955 2.1124C8.77327 1.30868 9.86337 0.857147 11 0.857147C12.1366 0.857147 13.2267 1.30868 14.0305 2.1124C14.8342 2.91612 15.2857 4.00622 15.2857 5.14286V6" stroke="black" stroke-linecap="round" stroke-linejoin="round"/>
<path d="M8.42859 11.1454V18.0052" stroke="black" stroke-linecap="round" stroke-linejoin="round"/>
<path d="M13.5714 11.1454V18.0052" stroke="black" stroke-linecap="round" stroke-linejoin="round"/>
</svg>
