<svg width="24" height="24" viewBox="0 0 24 24" fill="none" xmlns="http://www.w3.org/2000/svg">
<path fill-rule="evenodd" clip-rule="evenodd" d="M9.45086 3.44747C9.81817 3.08033 10.2745 2.81482 10.7752 2.67693C11.2759 2.53905 11.8038 2.5335 12.3073 2.66084C12.8108 2.78818 13.2726 3.04405 13.6475 3.4034C14.0225 3.76275 14.2977 4.21327 14.4463 4.7109H8.69657C8.83922 4.23367 9.09844 3.79947 9.45086 3.44747ZM6.06686 4.7109C6.27205 3.39835 6.9395 2.20231 7.94883 1.33851C8.95816 0.474709 10.2429 0 11.5714 0C12.8999 0 14.1847 0.474709 15.194 1.33851C16.2034 2.20231 16.8708 3.39835 17.076 4.7109H21.8571C22.1981 4.7109 22.5252 4.84636 22.7663 5.08748C23.0074 5.32859 23.1429 5.65562 23.1429 5.99661C23.1429 6.33761 23.0074 6.66463 22.7663 6.90575C22.5252 7.14687 22.1981 7.28233 21.8571 7.28233H20.1429V21.4252C20.1429 21.7629 20.0763 22.0972 19.9471 22.4092C19.8179 22.7212 19.6285 23.0047 19.3897 23.2435C19.1509 23.4822 18.8675 23.6717 18.5555 23.8009C18.2435 23.9301 17.9091 23.9966 17.5714 23.9966H5.57143C5.23374 23.9966 4.89937 23.9301 4.58739 23.8009C4.27541 23.6717 3.99193 23.4822 3.75315 23.2435C3.51437 23.0047 3.32496 22.7212 3.19574 22.4092C3.06651 22.0972 3 21.7629 3 21.4252V7.28233H1.28571C0.944722 7.28233 0.617695 7.14687 0.376577 6.90575C0.135459 6.66463 0 6.33761 0 5.99661C0 5.65562 0.135459 5.32859 0.376577 5.08748C0.617695 4.84636 0.944722 4.7109 1.28571 4.7109H6.06686ZM8.14286 10.0698C8.73429 10.0698 9.21429 10.5498 9.21429 11.1412V18.0018C9.21429 18.2859 9.1014 18.5584 8.90047 18.7594C8.69954 18.9603 8.42702 19.0732 8.14286 19.0732C7.8587 19.0732 7.58617 18.9603 7.38524 18.7594C7.18431 18.5584 7.07143 18.2859 7.07143 18.0018V11.1412C7.07143 10.5498 7.55143 10.0698 8.14286 10.0698ZM16.0714 11.1412C16.0714 10.857 15.9585 10.5845 15.7576 10.3836C15.5567 10.1826 15.2842 10.0698 15 10.0698C14.7158 10.0698 14.4433 10.1826 14.2424 10.3836C14.0415 10.5845 13.9286 10.857 13.9286 11.1412V18.0018C13.9286 18.2859 14.0415 18.5584 14.2424 18.7594C14.4433 18.9603 14.7158 19.0732 15 19.0732C15.2842 19.0732 15.5567 18.9603 15.7576 18.7594C15.9585 18.5584 16.0714 18.2859 16.0714 18.0018V11.1412Z" fill="black"/>
</svg>
