<svg width="24" height="24" viewBox="0 0 24 24" fill="#00ff00" xmlns="http://www.w3.org/2000/svg">
<path d="M18.3686 -0.00171659C18.027 -0.0016635 17.6889 0.0664286 17.374 0.198584C17.0591 0.33074 16.7736 0.524312 16.5343 0.767998L2.41201 14.82C2.30756 14.9247 2.23197 15.0546 2.19259 15.1971L0.0325852 22.9114C-0.00826382 23.0578 -0.00946431 23.2124 0.0291067 23.3594C0.0676777 23.5064 0.144634 23.6405 0.252089 23.7479C0.359544 23.8554 0.493636 23.9323 0.640624 23.9709C0.787613 24.0095 0.942213 24.0083 1.08859 23.9674L8.80287 21.8074C8.94541 21.768 9.07533 21.6924 9.18001 21.588L23.232 7.46571L23.2354 7.464C23.4759 7.22501 23.6668 6.94082 23.797 6.62779C23.9273 6.31475 23.9943 5.97905 23.9943 5.64C23.9943 5.30095 23.9273 4.96525 23.797 4.65221C23.6668 4.33917 23.4759 4.05498 23.2354 3.816L23.232 3.81428L20.2046 0.769712C19.9653 0.525433 19.6796 0.331374 19.3644 0.198909C19.0491 0.0664441 18.7106 -0.00176356 18.3686 -0.00171659Z" fill="black"/>
</svg>
