<svg width="24" height="24" viewBox="0 0 24 24" fill="none" xmlns="http://www.w3.org/2000/svg">
<path d="M8.57143 20.9829L0.857147 23.1429L3.01715 15.4286L17.1429 1.37147C17.3025 1.20819 17.4933 1.07845 17.7036 0.989882C17.9141 0.901308 18.1402 0.855682 18.3686 0.855682C18.5969 0.855682 18.823 0.901308 19.0335 0.989882C19.2439 1.07845 19.4347 1.20819 19.5943 1.37147L22.6286 4.4229C22.7892 4.58226 22.9167 4.77187 23.0038 4.98076C23.0909 5.18966 23.1357 5.41373 23.1357 5.64004C23.1357 5.86634 23.0909 6.09041 23.0038 6.29932C22.9167 6.50822 22.7892 6.69782 22.6286 6.85718L8.57143 20.9829Z" stroke="black" stroke-linecap="round" stroke-linejoin="round"/>
</svg>
