<svg width="24" height="24" viewBox="0 0 24 24" fill="none" xmlns="http://www.w3.org/2000/svg">
<path fill-rule="evenodd" clip-rule="evenodd" d="M1.37254e-06 1.71429V7.71429C-0.000302339 7.88404 0.0498035 8.05005 0.143967 8.19129C0.23813 8.33253 0.37211 8.44263 0.528921 8.50763C0.685733 8.57263 0.858314 8.58961 1.02479 8.55641C1.19126 8.52321 1.34412 8.44133 1.464 8.32114L3.67886 6.10286L7.35943 9.78172C7.68275 10.094 8.11578 10.2668 8.56526 10.2629C9.01474 10.259 9.44471 10.0787 9.76255 9.76083C10.0804 9.44299 10.2607 9.01303 10.2646 8.56355C10.2685 8.11407 10.0957 7.68103 9.78343 7.35772L6.10457 3.67886L8.32114 1.464C8.44133 1.34412 8.52321 1.19126 8.55641 1.02479C8.58961 0.858314 8.57263 0.685733 8.50763 0.528921C8.44263 0.37211 8.33253 0.23813 8.19129 0.143967C8.05005 0.0498035 7.88404 -0.000302339 7.71429 1.37254e-06H0.857144C0.629816 1.37254e-06 0.411798 0.0903072 0.251053 0.251053C0.0903072 0.411798 1.37254e-06 0.629816 1.37254e-06 0.857144V1.71429ZM9.78343 16.6406C10.0957 16.3173 10.2685 15.8842 10.2646 15.4347C10.2607 14.9853 10.0804 14.5553 9.76255 14.2375C9.44471 13.9196 9.01474 13.7393 8.56526 13.7354C8.11578 13.7315 7.68275 13.9043 7.35943 14.2166L3.67886 17.8954L1.464 15.6789C1.34412 15.5587 1.19126 15.4768 1.02479 15.4436C0.858314 15.4104 0.685733 15.4274 0.528921 15.4924C0.37211 15.5574 0.23813 15.6675 0.143967 15.8087C0.0498035 15.9499 -0.000302339 16.116 1.37254e-06 16.2857V23.1429C1.37254e-06 23.3702 0.0903072 23.5882 0.251053 23.749C0.411798 23.9097 0.629816 24 0.857144 24H7.71429C7.88404 24.0003 8.05005 23.9502 8.19129 23.856C8.33253 23.7619 8.44263 23.6279 8.50763 23.4711C8.57263 23.3143 8.58961 23.1417 8.55641 22.9752C8.52321 22.8087 8.44133 22.6559 8.32114 22.536L6.10286 20.3211L9.78172 16.6406H9.78343ZM14.2166 14.2166C14.538 13.8952 14.974 13.7147 15.4286 13.7147C15.8831 13.7147 16.3191 13.8952 16.6406 14.2166L20.3211 17.8954L22.536 15.6789C22.6559 15.5587 22.8087 15.4768 22.9752 15.4436C23.1417 15.4104 23.3143 15.4274 23.4711 15.4924C23.6279 15.5574 23.7619 15.6675 23.856 15.8087C23.9502 15.9499 24.0003 16.116 24 16.2857V23.1429C24 23.3702 23.9097 23.5882 23.749 23.749C23.5882 23.9097 23.3702 24 23.1429 24H16.2857C16.116 24.0003 15.9499 23.9502 15.8087 23.856C15.6675 23.7619 15.5574 23.6279 15.4924 23.4711C15.4274 23.3143 15.4104 23.1417 15.4436 22.9752C15.4768 22.8087 15.5587 22.6559 15.6789 22.536L17.8954 20.3211L14.2166 16.6406C13.8952 16.3191 13.7147 15.8831 13.7147 15.4286C13.7147 14.974 13.8952 14.538 14.2166 14.2166ZM16.2857 1.37254e-06C16.116 -0.000302339 15.9499 0.0498035 15.8087 0.143967C15.6675 0.23813 15.5574 0.37211 15.4924 0.528921C15.4274 0.685733 15.4104 0.858314 15.4436 1.02479C15.4768 1.19126 15.5587 1.34412 15.6789 1.464L17.8954 3.67886L14.2166 7.35943C13.9043 7.68275 13.7315 8.11578 13.7354 8.56526C13.7393 9.01474 13.9196 9.44471 14.2375 9.76255C14.5553 10.0804 14.9853 10.2607 15.4347 10.2646C15.8842 10.2685 16.3173 10.0957 16.6406 9.78343L20.3211 6.10457L22.536 8.32114C22.6559 8.44133 22.8087 8.52321 22.9752 8.55641C23.1417 8.58961 23.3143 8.57263 23.4711 8.50763C23.6279 8.44263 23.7619 8.33253 23.856 8.19129C23.9502 8.05005 24.0003 7.88404 24 7.71429V0.857144C24 0.629816 23.9097 0.411798 23.749 0.251053C23.5882 0.0903072 23.3702 1.37254e-06 23.1429 1.37254e-06H16.2857Z" fill="black"/>
</svg>
